<svg xmlns="http://www.w3.org/2000/svg" viewBox="0 0 220.33 98.12"><defs><style>.cls-1{fill:#333;}</style></defs><title>logo-svg</title><g id="Camada_2" data-name="Camada 2"><g id="logo"><path class="cls-1" d="M105.19,72.2c-.25-2.12-.49-3.18-.49-3.18L104,68.2H96.45l-.33.41A37.18,37.18,0,0,0,96,72.69c.08.11.33.7.65.65s3.84-.08,3.84-.08l.41.49s.51,14.79-.12,15.51A4.16,4.16,0,0,1,99,90.45c-.72.32-7,1.83-8.14-5.53-.79-5.07-1.77-15-.91-20.33.56-3.5,2-6,4.49-6.42,5.8-.93,7.08,1,8,1.19,0,0,.07,0,.45-.16s1-2.81,1.21-3.59,0-1.06-1.84-1.84a18.64,18.64,0,0,0-9.08-.92,11.17,11.17,0,0,0-6.34,4.54c-3.22,6-.91,27.93-.41,30.12,1.19,5.17,4.31,6.84,6.6,7.47a28,28,0,0,0,5,.15,13.47,13.47,0,0,0,5.3-1.17A4.69,4.69,0,0,0,105.19,90C105.27,88.09,105.43,74.33,105.19,72.2Z"/><path class="cls-1" d="M35.36,30.94a42.6,42.6,0,0,1,4.18,2.66S38.18,35.42,36.72,37a23.18,23.18,0,0,1-14.45,6c-7.56.4-11.14-2.78-14.47-5.33s-4.68-4.18-6.32-9S-.91,17.1,1.76,12,12.22-1.3,24.13.17C32.82,1.25,37,5.81,39.38,9.36l-4.22,2.46s-4.29-7.4-15.39-7.1c-6.36.17-11.41,5.93-13.52,9.91-2.43,4.59-2.05,10.8,3.6,17.86,4.75,5.94,8.69,6,14.9,5.35C28.86,37.4,34.75,32,35.36,30.94Z"/><path class="cls-1" d="M123.25,44.45h4.67l.19-.36-.25-17.94.25-21.79L127.81,2l-4.56,0L107.8,14.45S92.53,2.54,92.38,2.33a.66.66,0,0,0-.49-.2l-4.51.16-.49.42s.19,18.21.19,19.08-.43,22.28-.43,22.28l.28.38,4.65-.08.26-.4-.15-4.75.22-13.52L92,10.1,91.91,9l16,11.71,15-11.52s-.17,10.77-.11,11.27.11,6.67.11,6.67l0,9.59,0,7.4Z"/><path class="cls-1" d="M140.67,10.2s-.22,7.34-.29,7.84.18,9.2.18,9.2l-.11,9.5-.05,7.31-.27.46-4.2.22-.27-.36.13-20.09-.12-15.47.44-6.67,4.73.09.39.31Z"/><path class="cls-1" d="M167.5,15.66a42.82,42.82,0,0,0-1.65-7.86,7.7,7.7,0,0,0-5.68-5.48,48.43,48.43,0,0,0-6.78-.37h-1.61V2l-3.6,0L148,8.51,148,23.61V44.12l.24.28,3.5-.09v0s5.35-.21,7.1-.33a9.83,9.83,0,0,0,7-4.41C169.07,33.58,167.5,17,167.5,15.66Zm-4.58,16.49c-.53,3.36-2,5.72-4.27,6.56a18.85,18.85,0,0,1-6,.5l.26-3.57-.18-10.37s.29-7.15.35-7.65-.28-7.73-.28-7.73l.17-2.4c.73,0,1.84,0,3.38,0,3,.14,4.65,2.2,5.41,5.14,1.24,4.76.83,3.4,1.08,7C162.9,19.95,163.73,27,162.92,32.15Z"/><path class="cls-1" d="M190.07,9.82l.55-7.64-.39-.31-4.73-.09v.06c-1.19.06-2.59.34-3.22.38-2.93.2-6.55,2.65-7.52,4.45-3.22,6-2.25,21.88-2.25,23.2s.25,12.3-.14,14.52l4.43-.34a145.66,145.66,0,0,0,0-17.07c0-.16,0-2.13.13-4.76l2.88.22,4.84-.37-.06,1.85L185.06,44l.27.36,4.2-.22.27-.46.05-7.31-.48-9.5s.35-8.7.41-9.2S190.07,9.82,190.07,9.82Zm-12.79,8c.13-1.2.29-2.41.49-3.56.73-4.2,1.21-5.71,3.68-6.62a12.44,12.44,0,0,1,3.7-.55l-.09,1.35-.27,9.14Z"/><path class="cls-1" d="M48.39,93.8H43.71l-.19-.36.25-17.94-.25-21.8.31-2.4,4.56,0L52,57.32,56,62l4.49-6.32s2.32-3.8,2.47-4a.66.66,0,0,1,.49-.21l4.51.16.49.42s-.19,18.21-.19,19.08.43,22.28.43,22.28l-.28.38-4.65-.08-.26-.4.15-4.75L63.44,75l-.06-13.85.11-1.14-3,3.76-4.4,6-7.2-8.73s0,8.18-.07,8.68-.11,6.67-.11,6.67l0,9.59,0,7.4Z"/><path class="cls-1" d="M80.8,59.28s-.22,7.34-.29,7.84.17,9.2.17,9.2l-.11,9.5-.05,7.31-.27.46-4.2.22-.27-.36.13-20.09-.12-15.47.44-6.67,4.73.09.39.31Z"/><path class="cls-1" d="M219.67,8.37a13,13,0,0,0-1.29-3.62c-.87-1.61-2.65-2.24-4.43-2.53-.87-.14-4.53-.17-6-.17h-.59l-2.83,0-.14,3,0,7v9.58l2.93,0h0s4.18-.1,5.55-.15a9.17,9.17,0,0,0,5.44-2C220.9,16.63,219.67,9,219.67,8.37Zm-3.06,6.4c-.11,1.74-1.51,2.66-3.43,3.08a33.82,33.82,0,0,1-5.42.36l-.2-5.4s.19-3.29.23-3.53-.18-3.56-.18-3.56h0c.56,0,1.89.08,3.77.05,4.58-.07,4.94,2.64,5.15,4.44A39.53,39.53,0,0,1,216.62,14.77Z"/><path class="cls-1" d="M204.11,22V12l0-7,.16-3.36,3.18,0H208c1.89,0,5.18,0,6,.18,1.52.25,3.66.8,4.69,2.71A13.2,13.2,0,0,1,220,8.37c0,.07,0,.26.05.54.21,2,.86,8.21-1.43,10.73A9.56,9.56,0,0,1,213,21.8c-1.37.05-5.55.15-5.55.15h-.27Zm.8-19.55-.13,2.66,0,6.94v9.22l2.82,0h0c.94,0,4.12-.1,5.28-.15a8.85,8.85,0,0,0,5.18-1.92c1.38-1.52,1.8-4.94,1.25-10.17,0-.31-.05-.53-.05-.61a13,13,0,0,0-1.24-3.45c-.67-1.24-2-2-4.17-2.34-.86-.14-4.74-.16-5.91-.17h-.59Zm2.51,16.13-.21-5.75c0-.59.19-3.36.24-3.6s-.08-1.94-.19-3.48v0l0-.39.34,0c.55,0,1.87.08,3.75.05h.18c4.78,0,5.14,3.09,5.34,4.76A39.8,39.8,0,0,1,217,14.8c-.11,1.75-1.37,2.89-3.72,3.4a33.89,33.89,0,0,1-5.49.37ZM208,6.08c.08,1.23.19,3,.15,3.26s-.15,2.23-.22,3.48l.18,5a31.06,31.06,0,0,0,5-.35c2-.44,3.06-1.34,3.15-2.75a38.74,38.74,0,0,0-.07-4.52c-.2-1.74-.48-4.12-4.62-4.12h-.17C209.86,6.14,208.69,6.11,208,6.08Z"/><path class="cls-1" d="M160.64,88.84c-.86,0-6.81-.1-7.58-.09-1.74,0-3.86.64-4-4.3l-.42-6s.49-10.86.54-11.37.25-7.84.25-7.84l.49-7.77-.15-.18-4.23-.09h0a35.07,35.07,0,0,0-3.83.39c-2.93.2-6.56,2.65-7.52,4.45-3.22,6-2.25,21.88-2.25,23.2s.25,12.3-.14,14.52l4.43-.34a146.39,146.39,0,0,0,0-17.07c0-.17,0-2.36.15-5.22l3,.23,4.87-.37-.18,6.74.34,7.46s-.22,7.78,5.89,8.1a99,99,0,0,0,10.24-.08l.46-.57,0-2.36S161.07,88.86,160.64,88.84Zm-23.92-22c.12-1.05.26-2.11.44-3.12.73-4.2,1.21-5.71,3.68-6.62a13.39,13.39,0,0,1,4.17-.55l-.55,5.81-.11,4.25Z"/><path class="cls-1" d="M156.24,84.27l4,0,.63-.75s0-2.82-.06-3.18.1-13.32.1-13.32l7,20.83c0,.15,1.62,5.15,1.62,5.15l.2.64.59.24,3.43-.15.34-.49.54-19.13-.2-20-.1-2.35-.29-.29-4.1-.26-.39.25,0,1.91.2,12.65V79L165.22,63.4l-3.46-11.52-.49-.49-4.43.11-.2,1.42-.59,23.44-.25,7.3Z"/><polygon class="cls-1" points="179.77 52.14 180.3 51.22 187.89 51.48 194.72 51.35 195.45 51.81 195.51 55.71 194.78 56.63 190.09 56.5 189.94 69.98 189.94 80.19 190.33 93.06 189.8 93.59 185.6 93.84 185 93.11 184.73 77.14 185.12 56.75 184.45 56.57 180.3 56.23 179.77 55.71 179.77 52.14"/><path class="cls-1" d="M218.2,51.54l-7.06-.36-4.94.2h0l-5.16,0,.21,15.14s.2,16,.2,16.22,0,11,0,11l4.73.12h.29l2.48-.08,9.17-.08.64-.61-.31-4.22-.44-.64-6.28.34-5.24-.21-.36-12.23v-4l3.48.25,8.06-.32.7-.56.15-3.82-.49-.6-11.9.16,0-10.77,5.74,0,5.74.14,1-1.22.07-3.09Z"/><path class="cls-1" d="M217.84,28.67l.95-.85.06-2.14-.51-.55-6.59-.37-3.82.11v0l-3.6,0,.14,7,.25,7-.11,5.64,13.74,0,.39-.4L218.67,42l-.42-.5-5.08.12-4.85,0L208,41l-.12-4.72s0-.55,0-1.56l3.24,0,7-.22.55-.42.11-1.89-.38-.48L208,31.93c0-1.37,0-2.72,0-3.51l4.53,0Z"/><path class="cls-1" d="M218.51,44.88l-14.26,0,.11-6-.25-6.93L204,24.51l4.36,0h0l3.42-.1,6.77.38.71.76L219.14,28,218,29l-5.48-.22-4.15,0c0,.78,0,1.86,0,2.78l10.29-.15.58.73-.13,2.19-.77.59-7.12.23-2.9,0c0,.78,0,1.21,0,1.21l.12,4.6.15.25,4.65,0,5.25-.12.62.73.09,2.43ZM205,44.11l13.22,0,.17-.18-.07-1.88-.23-.27-4.91.11-5.07,0-.46-.75-.12-4.82s0-.58,0-1.58v-.36l3.6,0,6.88-.22.32-.25.1-1.58-.19-.23-10.68.15v-.37c0-1.61,0-2.82,0-3.5v-.37l4.9,0,5.2.21.72-.64.05-1.84-.3-.33-6.45-.36-4.19.13v0H204.7l.14,6.64.25,6.95Z"/><path class="cls-1" d="M122.85,70.18a6.81,6.81,0,0,0,2.5-1.2c2.51-2.77,2.23-9.4,2.23-10a23.87,23.87,0,0,0-1.77-4.86c-.87-1.61-4.48-2.34-6.26-2.63-.87-.14-4.53-.17-6-.17h0l-3.9,0-.19,4.48,0,7.92-.06,21,.13.29,4.09-.2.23-.29.08-6.95c0-2.78,0-4.84,0-6.39,1.29,0,3.71-.09,4.7-.13h0l.52,2.11,2.06,8.09,1.1,3.54.18.23,4.22-.15.28-.36-2.14-6.88S123.51,72.61,122.85,70.18Zm-9.29-3.76a1.84,1.84,0,0,1,0-.67c0-.2.5-7.85.62-9.74a16.86,16.86,0,0,1,2.82-.27c4.58-.07,6.32,2.24,6.53,4,0,.14-.14,2.53-.26,4.36s-2.93,2.23-4.86,2.65A14.56,14.56,0,0,1,113.56,66.43Z"/><polygon class="cls-1" points="109.57 89.36 108.87 89.98 108.8 93.03 109.2 93.49 117.61 93.77 127.09 93.62 127.35 93.32 127.27 89.79 126.72 89.41 118.48 89.21 109.57 89.36"/><path class="cls-1" d="M31.71,45.88s-2.79.08-3.14.15-.81.19-.81.63,1.3,5,1.71,6.39c.8,2.8,3.08,7.21,3.38,16.89a73.5,73.5,0,0,1-1.75,18.59,29.49,29.49,0,0,1-3.65,9l.31.52,4,.12,1-.44,1.42-2.28a55.92,55.92,0,0,0,3.89-23.52c-.77-13-3.08-18-3.08-18l-2.21-7.41A.93.93,0,0,0,31.71,45.88Z"/><path class="cls-1" d="M8.87,45.81a15,15,0,0,1,2.73.07c.31.17.93.6.93,1s-1.12,3.76-1.36,5.25S7.82,58.92,7.39,68.61A91.55,91.55,0,0,0,8.51,88.42,23.73,23.73,0,0,0,12,96.78l-.55.79L7.75,98l-1-.43L5.34,95.34S1,86.58,1.94,73.56,4.8,53.81,4.8,53.81L7.22,47S7.86,45.73,8.87,45.81Z"/><polygon class="cls-1" points="17.69 72.21 18.29 71.61 20.23 71.46 21.97 71.93 22.11 74.6 22.31 85.37 22.69 92.99 22.09 93.8 18.01 93.66 17.75 92.93 17.76 81.02 17.69 72.21"/><polygon class="cls-1" points="18.1 60.18 17.5 60.38 17.52 62.48 17.52 64.48 17.99 64.95 21.71 64.89 22.11 64.49 22.2 60.74 21.8 60.14 18.1 60.18"/><path class="cls-1" d="M48.15,41.89a49.84,49.84,0,0,0,13.28,2.7,36.94,36.94,0,0,0,10-1.38c1.59-.35,3.25-.83,3.32-1.18a21.42,21.42,0,0,0-.38-2.78c0-.24-.57-.28-.57-.28l-3.34.71a29.9,29.9,0,0,1-8.23,1.38c-4.23,0-9.63-1.63-9.84-1.63s-2.7-1.12-3.72-1.33a.39.39,0,0,0-.46.24A20.79,20.79,0,0,0,48.15,41.89Z"/><path class="cls-1" d="M75,36.86c2.14-1.45,5-5.69,5.5-6.31s2.26-6.32,2.74-8.83c.09-.48-.45-.81-.45-.81s-11,6.86-21.66,6.74c-14.17-.17-18.45-4.5-20-5.81a5,5,0,0,1-1.4-2.09s-.9.62-.9,1a22.41,22.41,0,0,0,.5,3c.14.41,3.73,9.94,5.81,11.07,1.15.62,7.25,3.28,7.25,3.28a53.2,53.2,0,0,0,9.07,1.35C65,39.49,72.88,38.31,75,36.86Z"/><path class="cls-1" d="M82,18.73c-.14-1-.42-6.32-3.4-10.12S71.23,0,59.75.37C50.49.69,42.9,10.17,42,12s-1.59,6.62-1.59,6.62,1,1.38,2,2.44l.9-.66,1.55-.38,1.86.93-1,2.33.83.41.08-.09.57-1.46,0-.76-.33-1.06-.71-1-.63-.39-1.14.34.84-1.69L48,16l1.1-2.78,1.74-.88,1.7-2.44,1.15-.84L55,9.88l.8,2.11.35,1.12-.35,1.39-1.21,4.66-.09,1.57,1.32,1.2,1.14-.4.86.4,1-.17.63,1.6-.35,1.08-.4,1.62c.47,0,.91,0,1.32,0a51.14,51.14,0,0,0,12.21-2l-1.85-.45-.65-2.43-3.81.31-.37-.75-.37-.55.43-1.93.29-1.94,2.84-2.1L70,11.87l1.64-1.53,1.13-1.56-.13-1.93-1.13-1,.73-.45.66.13,1,.6.62,1.43,0,2.43-1.18,6.35,1,.79,1.54.4,1,1.71.32,1.95-.18,1.05a25.79,25.79,0,0,0,4.09-2.16A1.34,1.34,0,0,0,82,18.73Z"/></g></g></svg>
